PathFileType	4	(X/Y/Z)	/Users/itak/Documents/Research/Walk-IL/dataset/trc/00104_00007.trc
DataRate	CameraRate	NumFrames	NumMarkers	Units	OrigDataRate	OrigDataStartFrame	OrigNumFrames
100.000000	100.000000	4	53	mm	100.000000	302	604
Frame#	Time	RPSI			LPSI			L3			STRN			T10			C7			CLAV			RBAK			LBAK			LSHO			LUPA			LAEL			LAOL			LWTS			LWPS			LFRA			LIFD			LHPS			LHTS			RSHO			RUPA			RAEL			RAOL			RWTS			RWPS			RFRA			RIFD			RHTS			RHPS			RBHD			LFHD			RFHD			LBHD			LHIP			RHIP			RASI			LASI			LKNE			LTHI			LANK			LTIP			LTOE			LMT1			LMT5			LHEE			RKNE			RTHI			RANK			RTIP			RTOE			RMT1			RMT5			RHEE			
		X1	Y1	Z1	X2	Y2	Z2	X3	Y3	Z3	X4	Y4	Z4	X5	Y5	Z5	X6	Y6	Z6	X7	Y7	Z7	X8	Y8	Z8	X9	Y9	Z9	X10	Y10	Z10	X11	Y11	Z11	X12	Y12	Z12	X13	Y13	Z13	X14	Y14	Z14	X15	Y15	Z15	X16	Y16	Z16	X17	Y17	Z17	X18	Y18	Z18	X19	Y19	Z19	X20	Y20	Z20	X21	Y21	Z21	X22	Y22	Z22	X23	Y23	Z23	X24	Y24	Z24	X25	Y25	Z25	X26	Y26	Z26	X27	Y27	Z27	X28	Y28	Z28	X29	Y29	Z29	X30	Y30	Z30	X31	Y31	Z31	X32	Y32	Z32	X33	Y33	Z33	X34	Y34	Z34	X35	Y35	Z35	X36	Y36	Z36	X37	Y37	Z37	X38	Y38	Z38	X39	Y39	Z39	X40	Y40	Z40	X41	Y41	Z41	X42	Y42	Z42	X43	Y43	Z43	X44	Y44	Z44	X45	Y45	Z45	X46	Y46	Z46	X47	Y47	Z47	X48	Y48	Z48	X49	Y49	Z49	X50	Y50	Z50	X51	Y51	Z51	X52	Y52	Z52	X53	Y53	Z53	

303	3.02	-901.8995971679688	1121.353149414062	-245.1197204589844	-909.943359375	1120.190795898438	-380.7808837890625	-912.7731323242188	1159.795166015625	-315.2470703125	-686.9933471679688	1359.138305664062	-328.4923095703125	-940.1226196289062	1313.768798828125	-315.6168823242188	-894.1589965820312	1605.685668945312	-334.7611694335938	-717.531005859375	1495.3408203125	-332.6731567382812	-949.1493530273438	1423.965209960938	-241.2091217041016	-907.5137939453125	1585.58251953125	-436.5259094238281	-823.6160888671875	1567.717407226562	-507.6424865722656	-845.831787109375	1434.929443359375	-574.3190307617188	-830.6737060546875	1216.12646484375	-596.2467041015625	-894.1725463867188	1202.822875976562	-537.1996459960938	-720.2177124023438	963.5842895507812	-553.0009765625	-800.71533203125	934.2005004882812	-577.6297607421875	-810.5606079101562	1100.385986328125	-599.7706909179688	-699.60888671875	771.7079467773438	-530.1725463867188	-767.9077758789062	860.931640625	-579.31689453125	-700.989990234375	875.0905151367188	-564.3373413085938	-831.6456298828125	1588.338745117188	-156.1786651611328	-843.64599609375	1516.373168945312	-89.75017547607422	-839.4482421875	1223.6923828125	-47.81221008300781	-853.7619018554688	1215.686401367188	-143.2353515625	-679.4654541015625	991.8060913085938	-57.83636856079102	-749.4215087890625	971.4885864257812	-19.2979850769043	-809.6729736328125	1153.359375	-29.46852874755859	-643.59326171875	797.9609985351562	-67.39214324951172	-642.2901000976562	885.4814453125	-49.48359680175781	-706.01611328125	874.9867553710938	-12.51160907745361	-845.2769165039062	1778.439453125	-259.4035949707031	-686.8706665039062	1836.363647460938	-400.7638854980469	-680.7042236328125	1842.523681640625	-271.0474853515625	-859.5953979492188	1776.228271484375	-394.501708984375	-815.4362182617188	1032.937622070312	-492.0238952636719	-768.475830078125	1032.060302734375	-129.7046051025391	-691.3273315429688	1105.682006835938	-188.9325256347656	-711.291259765625	1101.8837890625	-452.2834167480469	-630.3532104492188	546.0411376953125	-472.5961303710938	-698.8834228515625	688.1513671875	-492.9053955078125	-1024.423095703125	187.4029388427734	-463.1978454589844	-853.9713745117188	384.0813903808594	-486.9793701171875	-843.9135131835938	49.6249885559082	-443.0216064453125	-897.7958984375	89.88395690917969	-397.0702209472656	-940.2138061523438	105.4667053222656	-504.189208984375	-1063.92626953125	229.0953826904297	-391.2705993652344	-731.1011962890625	539.7462768554688	-188.9810180664062	-731.1739501953125	818.8363647460938	-145.3155822753906	-821.171142578125	27.76732444763184	-225.1631317138672	-749.5354614257812	403.3644409179688	-181.9850311279297	-592.96533203125	42.95108413696289	-296.3849487304688	-656.1500854492188	36.94280242919922	-330.9471130371094	-686.50830078125	38.36825561523438	-211.2205657958984	-881.5458374023438	33.04086685180664	-269.8099975585938	
304	3.03	-893.6058349609375	1121.559936523438	-245.3003845214844	-901.3920288085938	1120.658935546875	-380.9393920898438	-904.4801025390625	1160.091918945312	-315.2294921875	-678.5179443359375	1359.601806640625	-328.0885314941406	-931.2355346679688	1314.09326171875	-314.7954711914062	-885.7636108398438	1606.047729492188	-334.1457824707031	-709.0997924804688	1495.78857421875	-332.5283203125	-940.3509521484375	1424.406860351562	-240.2646789550781	-899.3734130859375	1585.930786132812	-435.7923889160156	-815.7606201171875	1568.085571289062	-507.2864990234375	-839.1041259765625	1435.416748046875	-573.9042358398438	-826.5708618164062	1216.438720703125	-595.6486206054688	-889.8651123046875	1204.004150390625	-536.1583251953125	-718.9300537109375	962.57763671875	-552.5248413085938	-799.9692993164062	934.12255859375	-576.6241455078125	-807.89453125	1100.4375	-599.0825805664062	-700.68505859375	770.5693969726562	-528.888916015625	-768.1624145507812	860.39404296875	-578.1465454101562	-700.921630859375	873.7122192382812	-563.5631103515625	-822.727294921875	1589.049926757812	-155.8151245117188	-834.1500854492188	1517.1015625	-89.14488983154297	-827.71923828125	1224.536010742188	-46.36725616455078	-842.5552978515625	1216.109130859375	-141.7592010498047	-664.5673828125	994.8662109375	-56.60226440429688	-734.110595703125	973.552978515625	-17.81063842773438	-796.970458984375	1154.549438476562	-28.02087593078613	-625.7194213867188	801.6837158203125	-65.80691528320312	-625.7918701171875	889.14599609375	-48.10921478271484	-689.2586669921875	877.7627563476562	-10.97266292572021	-836.7183227539062	1779.092163085938	-259.3946533203125	-678.486572265625	1836.521362304688	-401.1726989746094	-672.1224365234375	1843.0126953125	-271.4837341308594	-851.2623901367188	1776.561645507812	-394.4886169433594	-806.3754272460938	1033.8623046875	-492.1377563476562	-760.6285400390625	1031.910888671875	-129.5033874511719	-683.33837890625	1105.720458984375	-188.2048950195312	-702.5162963867188	1102.788940429688	-451.6388244628906	-614.7023315429688	549.4976806640625	-471.5470886230469	-685.3211059570312	690.5032348632812	-492.6430969238281	-999.1681518554688	180.8878173828125	-464.1824951171875	-834.540771484375	382.4129333496094	-486.7908630371094	-813.729736328125	49.75468444824219	-443.7688903808594	-869.6200561523438	87.74718475341797	-398.0221252441406	-911.600341796875	102.6472396850586	-505.228759765625	-1040.891723632812	220.6263732910156	-392.2031860351562	-728.2357177734375	539.2045288085938	-188.4618988037109	-725.2254638671875	818.4570922851562	-145.2637023925781	-821.1959838867188	27.90244102478027	-225.3243560791016	-747.7518920898438	403.045654296875	-181.6644897460938	-592.8424682617188	42.814453125	-296.3990173339844	-656.0922241210938	36.91709136962891	-330.919677734375	-686.530517578125	38.31713104248047	-211.1229705810547	-881.5548706054688	33.17206954956055	-270.0296630859375	
305	3.04	-885.3263549804688	1121.723022460938	-245.5145721435547	-892.850830078125	1121.0771484375	-381.129638671875	-896.2059326171875	1160.341552734375	-315.2512817382812	-670.0215454101562	1359.94140625	-327.6868896484375	-922.2884521484375	1314.3408203125	-313.9569091796875	-877.3397216796875	1606.324829101562	-333.573486328125	-700.64599609375	1496.113159179688	-332.3822937011719	-931.5703125	1424.765014648438	-239.3650360107422	-891.1849365234375	1586.179321289062	-435.1078491210938	-807.8348999023438	1568.312866210938	-506.9393920898438	-832.2691650390625	1435.77783203125	-573.5136108398438	-822.2651977539062	1216.6689453125	-595.0878295898438	-885.4387817382812	1205.084838867188	-535.2730712890625	-717.5938720703125	961.4736328125	-551.9505615234375	-799.0991821289062	933.993408203125	-575.7232666015625	-805.0498657226562	1100.419067382812	-598.4276123046875	-701.911376953125	769.3350830078125	-527.42431640625	-768.343017578125	859.7891235351562	-576.9827270507812	-700.8401489257812	872.2280883789062	-562.6260986328125	-813.8226318359375	1589.658813476562	-155.4714660644531	-824.7233276367188	1517.749633789062	-88.57866668701172	-816.1893310546875	1225.288818359375	-45.00462341308594	-831.521484375	1216.46044921875	-140.3844299316406	-649.8115844726562	997.9599609375	-55.49028396606445	-718.927734375	975.5858764648438	-16.49122619628906	-784.4781494140625	1155.648071289062	-26.67870140075684	-607.8855590820312	805.4778442382812	-64.46974945068359	-609.3779296875	892.8862915039062	-46.92050933837891	-672.57373046875	880.5489501953125	-9.64528751373291	-828.17919921875	1779.649658203125	-259.4322814941406	-670.121337890625	1836.578735351562	-401.6201782226562	-663.5637817382812	1843.432250976562	-271.9588317871094	-842.9325561523438	1776.770385742188	-394.5211486816406	-797.384765625	1034.703491210938	-492.27197265625	-752.8369140625	1031.697143554688	-129.3795928955078	-675.3438110351562	1105.638916015625	-187.5450744628906	-693.769775390625	1103.58056640625	-451.0413818359375	-599.6015014648438	552.8300170898438	-470.499755859375	-672.1712646484375	692.7559204101562	-492.4411010742188	-973.2717895507812	173.4794921875	-465.1799011230469	-815.0758056640625	380.1141052246094	-486.7435302734375	-782.8098754882812	49.75312805175781	-444.2044677734375	-840.79345703125	85.27736663818359	-398.7789001464844	-882.36767578125	99.12195587158203	-506.0585021972656	-1017.158447265625	211.2104187011719	-393.2251586914062	-725.2638549804688	538.6583251953125	-188.0599517822266	-719.2791137695312	818.0304565429688	-145.2776184082031	-821.2178955078125	28.05476951599121	-225.4907989501953	-745.8289184570312	402.7176513671875	-181.4541320800781	-592.7280883789062	42.67981719970703	-296.4111022949219	-656.0352783203125	36.8830451965332	-330.9104614257812	-686.5427856445312	38.27747344970703	-211.0506744384766	-881.5545043945312	33.32553482055664	-270.2293701171875	
306	3.05	-877.0571899414062	1121.831665039062	-245.7610778808594	-884.3208618164062	1121.436889648438	-381.3550415039062	-887.9406127929688	1160.545776367188	-315.3184814453125	-661.510498046875	1360.153076171875	-327.2923889160156	-913.312744140625	1314.505615234375	-313.1262817382812	-868.8815307617188	1606.513549804688	-333.0492248535156	-692.1708984375	1496.312133789062	-332.2377319335938	-922.8117065429688	1425.038696289062	-238.5181884765625	-882.9468994140625	1586.3232421875	-434.4764709472656	-799.8399658203125	1568.391723632812	-506.6096496582031	-825.322265625	1435.9970703125	-573.1392822265625	-817.73828125	1216.800659179688	-594.5414428710938	-880.871826171875	1206.047973632812	-534.5125122070312	-716.1995239257812	960.2603149414062	-551.28173828125	-798.0938110351562	933.8074340820312	-574.915771484375	-802.0076904296875	1100.317626953125	-597.7884521484375	-703.2510375976562	768.00146484375	-525.8787231445312	-768.43359375	859.118408203125	-575.8587036132812	-700.7275390625	870.6436157226562	-561.5762329101562	-804.9309692382812	1590.15869140625	-155.1507110595703	-815.3740234375	1518.307739257812	-88.05603790283203	-804.8515014648438	1225.9375	-43.72195053100586	-820.6483154296875	1216.726440429688	-139.0997314453125	-635.2118530273438	1001.066284179688	-54.50730133056641	-703.880126953125	977.5764770507812	-15.33478832244873	-772.1873779296875	1156.644775390625	-25.43664932250977	-590.1325073242188	809.324462890625	-63.38046646118164	-593.0780029296875	896.676025390625	-45.92657852172852	-655.9840087890625	883.3298950195312	-8.523135185241699	-819.650146484375	1780.095092773438	-259.5162048339844	-661.77490234375	1836.542602539062	-402.1042785644531	-655.0263671875	1843.783569335938	-272.468017578125	-834.5975341796875	1776.84130859375	-394.5950012207031	-788.4551391601562	1035.444091796875	-492.4179382324219	-745.1102294921875	1031.419677734375	-129.3241424560547	-667.3377685546875	1105.448120117188	-186.9527893066406	-685.0460205078125	1104.24462890625	-450.4925842285156	-585.055419921875	556.0015869140625	-469.4848937988281	-659.42919921875	694.8822631835938	-492.3021850585938	-946.7646484375	165.3271942138672	-466.1476135253906	-795.5669555664062	377.2087097167969	-486.8360595703125	-751.2928466796875	49.68582916259766	-444.4555358886719	-811.3439331054688	82.55055999755859	-399.3845825195312	-852.6008911132812	95.04415130615234	-506.735595703125	-992.6912841796875	200.9733123779297	-394.2711486816406	-722.1717529296875	538.1056518554688	-187.7706604003906	-713.316162109375	817.5568237304688	-145.3537445068359	-821.2359619140625	28.2261848449707	-225.6678771972656	-743.765625	402.3749389648438	-181.3460540771484	-592.6171264648438	42.5484733581543	-296.4179077148438	-655.9808349609375	36.83856582641602	-330.9168395996094	-686.5460815429688	38.25071334838867	-211.00244140625	-881.5426635742188	33.49759292602539	-270.4275207519531	
